<svg width="16" height="15" viewBox="0 0 16 15" fill="none" xmlns="http://www.w3.org/2000/svg">
<path d="M1.5 0C0.671875 0 0 0.672907 0 1.5023V12.5192C0 13.3486 0.671875 14.0215 1.5 14.0215H14.5C15.3281 14.0215 16 13.3486 16 12.5192V1.5023C16 0.672907 15.3281 0 14.5 0H1.5ZM1.5 1.00154H4.8125C4.91562 1.00154 5 1.08604 5 1.18932V1.81528C5 1.91857 4.91562 2.00307 4.8125 2.00307H1.1875C1.08438 2.00307 1 1.91857 1 1.81528V1.5023C1 1.22688 1.225 1.00154 1.5 1.00154ZM14.8125 4.00614H1.1875C1.08438 4.00614 1 3.92164 1 3.81836V2.69163C1 2.58834 1.08438 2.50384 1.1875 2.50384H5.5L6.44375 1.08604C6.47812 1.03283 6.5375 1.00154 6.6 1.00154H14.5C14.775 1.00154 15 1.22688 15 1.5023V3.81836C15 3.92164 14.9156 4.00614 14.8125 4.00614ZM8 12.2688C5.93125 12.2688 4.25 10.585 4.25 8.51306C4.25 6.44113 5.93125 4.7573 8 4.7573C10.0687 4.7573 11.75 6.44113 11.75 8.51306C11.75 10.585 10.0687 12.2688 8 12.2688ZM8 5.75883C6.48438 5.75883 5.25 6.9951 5.25 8.51306C5.25 10.031 6.48438 11.2673 8 11.2673C9.51562 11.2673 10.75 10.031 10.75 8.51306C10.75 6.9951 9.51562 5.75883 8 5.75883ZM6.5 9.01383C6.225 9.01383 6 8.78848 6 8.51306C6 7.40824 6.89688 6.50998 8 6.50998C8.275 6.50998 8.5 6.73533 8.5 7.01075C8.5 7.28618 8.275 7.51152 8 7.51152C7.45 7.51152 7 7.96221 7 8.51306C7 8.78848 6.775 9.01383 6.5 9.01383Z" fill="#E61C44"/>
</svg>
