<svg width="18" height="18" viewBox="0 0 18 18" fill="none" xmlns="http://www.w3.org/2000/svg">
<path d="M17.6582 0.59668C17.6211 0.423828 17.4502 0.25293 17.2768 0.21582C16.2706 0 15.4828 0 14.6984 0C11.4724 0 9.53787 1.7251 8.0936 4H4.83689C4.32603 4.00049 3.72575 4.37109 3.49669 4.82764L1.95183 7.91553C1.90409 8.02083 1.87738 8.13445 1.87321 8.25C1.87329 8.44892 1.95235 8.63967 2.09303 8.78032C2.2337 8.92096 2.42447 8.99998 2.6234 9H5.86747L5.16514 9.70215C4.80998 10.0572 4.75901 10.7102 5.16514 11.1162L6.7559 12.707C7.10453 13.0566 7.76078 13.1182 8.17081 12.707L8.87314 12.0049V15.25C8.87321 15.4489 8.95228 15.6397 9.09296 15.7803C9.23363 15.921 9.4244 16 9.62332 16C9.7389 15.9957 9.85253 15.969 9.95792 15.9214L13.0432 14.3779C13.5003 14.1499 13.8715 13.5498 13.8715 13.0386V9.7749C16.1402 8.32764 17.8726 6.38721 17.8726 3.17822C17.8756 2.39062 17.8756 1.60303 17.6582 0.59668ZM13.8745 5.25C13.6273 5.24994 13.3856 5.17658 13.1801 5.03919C12.9746 4.9018 12.8144 4.70656 12.7198 4.47815C12.6253 4.24973 12.6006 3.99841 12.6488 3.75595C12.6971 3.5135 12.8162 3.2908 12.991 3.11601C13.1658 2.94122 13.3886 2.8222 13.631 2.774C13.8735 2.72579 14.1248 2.75056 14.3532 2.84518C14.5816 2.9398 14.7768 3.10001 14.9141 3.30557C15.0515 3.51112 15.1248 3.75279 15.1248 4C15.1246 4.33151 14.9928 4.64939 14.7583 4.88378C14.5239 5.11817 14.206 5.24989 13.8745 5.25V5.25Z" fill="#E61C44"/>
<path d="M1.42487 15.9598C1.36523 13.5662 1.69818 12.4691 3.47395 11.3022C5.35017 11.4656 5.95606 12.0683 6.16146 14.1006C5.37322 15.5 4.33383 16.1448 1.42487 15.9598Z" fill="#E61C44"/>
<path d="M2.6366 14.7534C2.60332 13.4176 2.78913 12.8054 3.7801 12.1542C4.82714 12.2454 5.16526 12.5818 5.27988 13.7159C4.84 14.4968 4.25996 14.8566 2.6366 14.7534Z" fill="#EB96A7"/>
</svg>
