<svg width="19" height="26" viewBox="0 0 19 26" fill="none" xmlns="http://www.w3.org/2000/svg">
<path d="M7.65507 2.00525C7.05981 3.28919 6.71844 5.0063 6.71844 6.71634V17.8754C6.4652 18.0689 6.25569 18.2889 6.10031 18.5286L6.10031 10.4663C4.93154 16.2024 0.846191 16.5834 0.846191 21.4037L5.79125 21.4038V22.0288H0.846191C0.846191 23.0644 1.95319 23.9038 3.31872 23.9038H5.79125C5.79125 24.81 6.17881 25.1538 6.71844 25.1538H8.26377C8.80398 25.1538 9.19097 24.8093 9.19097 23.9038H9.8091C9.8091 24.81 10.1967 25.1538 10.7363 25.1538H12.2816C12.8218 25.1538 13.2088 24.8093 13.2088 23.9038H15.6814C17.0469 23.9038 18.1539 23.0644 18.1539 22.0288H13.2088V21.4038H18.1539C18.1539 16.5835 14.0685 16.2024 12.8998 10.4663L12.8998 18.5286C12.7444 18.289 12.5349 18.0689 12.2816 17.8755L12.2816 6.71634C12.2816 5.0063 11.9403 3.28919 11.345 2.00525C10.8076 0.845949 10.1179 0.153839 9.50004 0.153839C8.88221 0.153839 8.19249 0.845949 7.65507 2.00525ZM11.0454 6.09134C11.0454 6.17422 11.0128 6.25371 10.9548 6.31231C10.8969 6.37092 10.8183 6.40384 10.7363 6.40384H8.26377C8.1818 6.40384 8.10319 6.37092 8.04523 6.31231C7.98727 6.25371 7.95471 6.17422 7.95471 6.09134C7.95471 4.84489 11.0454 4.84361 11.0454 6.09134Z" fill="white"/>
</svg>
