<svg width="25" height="18" viewBox="0 0 25 18" xmlns="http://www.w3.org/2000/svg">
<path d="M23.1486 6.80888C21.8646 6.21362 20.1475 5.87225 18.4375 5.87225H7.2784C7.08496 5.61901 6.86492 5.4095 6.62527 5.25412H14.6875C8.95145 4.08535 8.57043 0 3.75012 0L3.75 4.94505H3.125V0C2.08945 0 1.25 1.107 1.25 2.47253V4.94505C0.343867 4.94505 0 5.33262 0 5.87225V7.41758C0 7.95779 0.344492 8.34478 1.25 8.34478V8.96291C0.343867 8.96291 0 9.35048 0 9.89011V11.4354C0 11.9756 0.344492 12.3626 1.25 12.3626V14.8352C1.25 16.2007 2.08945 17.3077 3.125 17.3077V12.3626H3.75V17.3077C8.57031 17.3077 8.95145 13.2223 14.6875 12.0536H6.62523C6.86488 11.8982 7.08492 11.6887 7.27836 11.4354H18.4375C20.1475 11.4354 21.8646 11.0941 23.1486 10.4988C24.3079 9.96139 25 9.27167 25 8.65385C25 8.03602 24.3079 7.3463 23.1486 6.80888ZM19.0625 10.1992C18.9796 10.1992 18.9001 10.1666 18.8415 10.1087C18.7829 10.0507 18.75 9.97208 18.75 9.89011V7.41758C18.75 7.33561 18.7829 7.257 18.8415 7.19904C18.9001 7.14108 18.9796 7.10852 19.0625 7.10852C20.3089 7.10852 20.3102 10.1992 19.0625 10.1992Z" fill="white"/>
</svg>
